<svg xmlns="http://www.w3.org/2000/svg" xmlns:xlink="http://www.w3.org/1999/xlink" width="500" zoomAndPan="magnify" viewBox="0 0 375 374.999991" height="500" preserveAspectRatio="xMidYMid meet" version="1.0"><defs><g/></defs><rect x="-37.5" width="450" fill="#ffffff" y="-37.499999" height="449.999989" fill-opacity="1"/><rect x="-37.5" width="450" fill="#ffffff" y="-37.499999" height="449.999989" fill-opacity="1"/><rect x="-37.5" width="450" fill="#ff4500" y="-37.499999" height="449.999989" fill-opacity="1"/><g fill="#000000" fill-opacity="1"><g transform="translate(278.683551, 343.124977)"><g/></g></g><g fill="#000000" fill-opacity="0.4"><g transform="translate(95.323071, 349.410416)"><g><path d="M 58.828125 -164.90625 C 68.453125 -164.90625 78.148438 -163.082031 87.921875 -159.4375 C 97.691406 -155.789062 106.398438 -150.175781 114.046875 -142.59375 C 121.703125 -135.007812 127.5 -126.003906 131.4375 -115.578125 C 135.375 -105.160156 137.34375 -94.046875 137.34375 -82.234375 C 137.34375 -66.335938 133.804688 -52.082031 126.734375 -39.46875 C 119.660156 -26.863281 110.070312 -17.132812 97.96875 -10.28125 C 85.875 -3.425781 72.753906 0 58.609375 0 L 11.8125 0 L 11.8125 -164.90625 Z M 43.953125 -28 L 48.546875 -28 C 67.210938 -28 81.140625 -32.550781 90.328125 -41.65625 C 99.515625 -50.769531 104.109375 -64.367188 104.109375 -82.453125 C 104.109375 -100.242188 99.585938 -113.765625 90.546875 -123.015625 C 81.503906 -132.273438 67.503906 -136.90625 48.546875 -136.90625 L 43.953125 -136.90625 Z M 43.953125 -28 "/></g></g></g><g fill="#000000" fill-opacity="0.4"><g transform="translate(236.603044, 349.410416)"><g><path d="M 56.203125 -164.90625 C 73.554688 -164.90625 86.929688 -160.640625 96.328125 -152.109375 C 105.734375 -143.578125 110.4375 -131.289062 110.4375 -115.25 C 110.4375 -103.59375 107.265625 -93.425781 100.921875 -84.75 C 94.585938 -76.070312 86.535156 -71.003906 76.765625 -69.546875 L 123.34375 0 L 84.421875 0 L 44.390625 -66.484375 L 43.953125 -66.484375 L 43.953125 0 L 11.8125 0 L 11.8125 -164.90625 Z M 43.953125 -89.015625 L 47.453125 -89.015625 C 58.535156 -89.015625 66.445312 -91.054688 71.1875 -95.140625 C 75.925781 -99.222656 78.296875 -105.632812 78.296875 -114.375 C 78.296875 -122.976562 75.960938 -129.175781 71.296875 -132.96875 C 66.628906 -136.757812 58.828125 -138.65625 47.890625 -138.65625 L 43.953125 -138.65625 Z M 43.953125 -89.015625 "/></g></g></g><g fill="#000000" fill-opacity="1"><g transform="translate(85.657542, 339.744887)"><g><path d="M 58.828125 -164.90625 C 68.453125 -164.90625 78.148438 -163.082031 87.921875 -159.4375 C 97.691406 -155.789062 106.398438 -150.175781 114.046875 -142.59375 C 121.703125 -135.007812 127.5 -126.003906 131.4375 -115.578125 C 135.375 -105.160156 137.34375 -94.046875 137.34375 -82.234375 C 137.34375 -66.335938 133.804688 -52.082031 126.734375 -39.46875 C 119.660156 -26.863281 110.070312 -17.132812 97.96875 -10.28125 C 85.875 -3.425781 72.753906 0 58.609375 0 L 11.8125 0 L 11.8125 -164.90625 Z M 43.953125 -28 L 48.546875 -28 C 67.210938 -28 81.140625 -32.550781 90.328125 -41.65625 C 99.515625 -50.769531 104.109375 -64.367188 104.109375 -82.453125 C 104.109375 -100.242188 99.585938 -113.765625 90.546875 -123.015625 C 81.503906 -132.273438 67.503906 -136.90625 48.546875 -136.90625 L 43.953125 -136.90625 Z M 43.953125 -28 "/></g></g></g><g fill="#000000" fill-opacity="1"><g transform="translate(226.937515, 339.744887)"><g><path d="M 56.203125 -164.90625 C 73.554688 -164.90625 86.929688 -160.640625 96.328125 -152.109375 C 105.734375 -143.578125 110.4375 -131.289062 110.4375 -115.25 C 110.4375 -103.59375 107.265625 -93.425781 100.921875 -84.75 C 94.585938 -76.070312 86.535156 -71.003906 76.765625 -69.546875 L 123.34375 0 L 84.421875 0 L 44.390625 -66.484375 L 43.953125 -66.484375 L 43.953125 0 L 11.8125 0 L 11.8125 -164.90625 Z M 43.953125 -89.015625 L 47.453125 -89.015625 C 58.535156 -89.015625 66.445312 -91.054688 71.1875 -95.140625 C 75.925781 -99.222656 78.296875 -105.632812 78.296875 -114.375 C 78.296875 -122.976562 75.960938 -129.175781 71.296875 -132.96875 C 66.628906 -136.757812 58.828125 -138.65625 47.890625 -138.65625 L 43.953125 -138.65625 Z M 43.953125 -89.015625 "/></g></g></g></svg>